<?xml version="1.0" encoding="UTF-8" standalone="no"?>
<!DOCTYPE svg PUBLIC "-//W3C//DTD SVG 1.1//EN" "http://www.w3.org/Graphics/SVG/1.1/DTD/svg11.dtd">
<svg xmlns="http://www.w3.org/2000/svg" version="1.1" viewBox="0.00 0.00 200.00 200.00">
<g stroke-width="2.00" fill="none" stroke-linecap="butt">
<path stroke="#808080" vector-effect="non-scaling-stroke" d="
  M 200.00 127.11
  L 197.67 126.95
  Q 197.24 126.91 196.91 126.62
  L 156.12 89.88
  Q 155.75 89.55 155.25 89.55
  L 44.82 89.55
  Q 44.24 89.55 43.80 89.94
  L 3.08 126.60
  Q 2.75 126.90 2.30 126.94
  L 0.00 127.16"
/>
<path stroke="#808080" vector-effect="non-scaling-stroke" d="
  M 104.18 29.50
  A 0.32 0.32 0.0 0 0 103.86 29.18
  L 96.12 29.18
  A 0.32 0.32 0.0 0 0 95.80 29.50
  L 95.80 55.92
  A 0.32 0.32 0.0 0 0 96.12 56.24
  L 103.86 56.24
  A 0.32 0.32 0.0 0 0 104.18 55.92
  L 104.18 29.50"
/>
<path stroke="#808080" vector-effect="non-scaling-stroke" d="
  M 59.9546 33.4967
  A 0.39 0.39 0.0 0 0 59.4161 33.3773
  L 53.0401 37.4393
  A 0.39 0.39 0.0 0 0 52.9207 37.9778
  L 67.1054 60.2433
  A 0.39 0.39 0.0 0 0 67.6439 60.3627
  L 74.0199 56.3007
  A 0.39 0.39 0.0 0 0 74.1393 55.7622
  L 59.9546 33.4967"
/>
<path stroke="#808080" vector-effect="non-scaling-stroke" d="
  M 149.1600 37.9509
  A 0.37 0.37 0.0 0 0 149.0468 37.4400
  L 142.6370 33.3566
  A 0.37 0.37 0.0 0 0 142.1262 33.4698
  L 127.9200 55.7691
  A 0.37 0.37 0.0 0 0 128.0332 56.2800
  L 134.4430 60.3634
  A 0.37 0.37 0.0 0 0 134.9538 60.2502
  L 149.1600 37.9509"
/>
<path stroke="#808080" vector-effect="non-scaling-stroke" d="
  M 200.00 189.00
  Q 198.13 198.23 188.91 200.00"
/>
<path stroke="#808080" vector-effect="non-scaling-stroke" d="
  M 10.97 200.00
  Q 1.91 198.18 0.00 189.15"
/>
<path stroke="#808080" vector-effect="non-scaling-stroke" d="
  M 66.72 127.62
  Q 66.54 130.77 66.86 133.74
  C 67.61 140.54 72.57 146.44 78.80 148.73
  Q 82.82 150.21 89.42 150.08
  Q 100.82 149.85 113.03 150.05
  C 121.66 150.20 128.95 145.92 132.12 137.78
  C 133.36 134.59 133.40 131.12 133.29 127.73
  A 0.66 0.66 0.0 0 1 133.95 127.05
  L 184.45 127.06
  Q 184.93 127.06 184.57 126.74
  L 153.00 98.30
  A 1.46 1.43 -23.5 0 0 152.03 97.93
  L 47.96 97.93
  Q 47.41 97.93 46.99 98.30
  L 15.58 126.59
  Q 15.06 127.05 15.75 127.05
  L 66.19 127.05
  Q 66.75 127.05 66.72 127.62"
/>
<path stroke="#808080" vector-effect="non-scaling-stroke" d="
  M 125.17 156.13
  Q 120.54 158.20 116.23 158.22
  Q 102.68 158.31 87.43 158.37
  Q 68.93 158.44 60.98 142.92
  C 59.90 140.80 59.23 138.39 58.76 136.04
  Q 58.64 135.43 58.02 135.43
  L 8.94 135.43
  Q 8.31 135.43 8.31 136.06
  L 8.31 187.47
  A 4.21 4.21 0.0 0 0 12.52 191.68
  Q 99.06 191.68 185.41 191.68
  C 188.83 191.68 191.68 191.10 191.67 187.24
  Q 191.66 186.80 191.72 136.13
  Q 191.72 135.43 191.03 135.43
  L 141.95 135.43
  Q 141.41 135.43 141.29 135.96
  Q 138.13 150.36 125.17 156.13"
/>
</g>
<path fill="#ffffff" d="
  M 0.00 0.00
  L 200.00 0.00
  L 200.00 127.11
  L 197.67 126.95
  Q 197.24 126.91 196.91 126.62
  L 156.12 89.88
  Q 155.75 89.55 155.25 89.55
  L 44.82 89.55
  Q 44.24 89.55 43.80 89.94
  L 3.08 126.60
  Q 2.75 126.90 2.30 126.94
  L 0.00 127.16
  L 0.00 0.00
  Z
  M 104.18 29.50
  A 0.32 0.32 0.0 0 0 103.86 29.18
  L 96.12 29.18
  A 0.32 0.32 0.0 0 0 95.80 29.50
  L 95.80 55.92
  A 0.32 0.32 0.0 0 0 96.12 56.24
  L 103.86 56.24
  A 0.32 0.32 0.0 0 0 104.18 55.92
  L 104.18 29.50
  Z
  M 59.9546 33.4967
  A 0.39 0.39 0.0 0 0 59.4161 33.3773
  L 53.0401 37.4393
  A 0.39 0.39 0.0 0 0 52.9207 37.9778
  L 67.1054 60.2433
  A 0.39 0.39 0.0 0 0 67.6439 60.3627
  L 74.0199 56.3007
  A 0.39 0.39 0.0 0 0 74.1393 55.7622
  L 59.9546 33.4967
  Z
  M 149.1600 37.9509
  A 0.37 0.37 0.0 0 0 149.0468 37.4400
  L 142.6370 33.3566
  A 0.37 0.37 0.0 0 0 142.1262 33.4698
  L 127.9200 55.7691
  A 0.37 0.37 0.0 0 0 128.0332 56.2800
  L 134.4430 60.3634
  A 0.37 0.37 0.0 0 0 134.9538 60.2502
  L 149.1600 37.9509
  Z"
/>
<rect fill="#000000" x="95.80" y="29.18" width="8.38" height="27.06" rx="0.32"/>
<rect fill="#000000" x="-4.17" y="-13.59" transform="translate(63.53,46.87) rotate(-32.5)" width="8.34" height="27.18" rx="0.39"/>
<rect fill="#000000" x="-4.17" y="-13.59" transform="translate(138.54,46.86) rotate(32.5)" width="8.34" height="27.18" rx="0.37"/>
<path fill="#000000" d="
  M 200.00 127.11
  L 200.00 189.00
  Q 198.13 198.23 188.91 200.00
  L 10.97 200.00
  Q 1.91 198.18 0.00 189.15
  L 0.00 127.16
  L 2.30 126.94
  Q 2.75 126.90 3.08 126.60
  L 43.80 89.94
  Q 44.24 89.55 44.82 89.55
  L 155.25 89.55
  Q 155.75 89.55 156.12 89.88
  L 196.91 126.62
  Q 197.24 126.91 197.67 126.95
  L 200.00 127.11
  Z
  M 66.72 127.62
  Q 66.54 130.77 66.86 133.74
  C 67.61 140.54 72.57 146.44 78.80 148.73
  Q 82.82 150.21 89.42 150.08
  Q 100.82 149.85 113.03 150.05
  C 121.66 150.20 128.95 145.92 132.12 137.78
  C 133.36 134.59 133.40 131.12 133.29 127.73
  A 0.66 0.66 0.0 0 1 133.95 127.05
  L 184.45 127.06
  Q 184.93 127.06 184.57 126.74
  L 153.00 98.30
  A 1.46 1.43 -23.5 0 0 152.03 97.93
  L 47.96 97.93
  Q 47.41 97.93 46.99 98.30
  L 15.58 126.59
  Q 15.06 127.05 15.75 127.05
  L 66.19 127.05
  Q 66.75 127.05 66.72 127.62
  Z
  M 125.17 156.13
  Q 120.54 158.20 116.23 158.22
  Q 102.68 158.31 87.43 158.37
  Q 68.93 158.44 60.98 142.92
  C 59.90 140.80 59.23 138.39 58.76 136.04
  Q 58.64 135.43 58.02 135.43
  L 8.94 135.43
  Q 8.31 135.43 8.31 136.06
  L 8.31 187.47
  A 4.21 4.21 0.0 0 0 12.52 191.68
  Q 99.06 191.68 185.41 191.68
  C 188.83 191.68 191.68 191.10 191.67 187.24
  Q 191.66 186.80 191.72 136.13
  Q 191.72 135.43 191.03 135.43
  L 141.95 135.43
  Q 141.41 135.43 141.29 135.96
  Q 138.13 150.36 125.17 156.13
  Z"
/>
<path fill="#ffffff" d="
  M 66.72 127.62
  Q 66.75 127.05 66.19 127.05
  L 15.75 127.05
  Q 15.06 127.05 15.58 126.59
  L 46.99 98.30
  Q 47.41 97.93 47.96 97.93
  L 152.03 97.93
  A 1.46 1.43 -23.5 0 1 153.00 98.30
  L 184.57 126.74
  Q 184.93 127.06 184.45 127.06
  L 133.95 127.05
  A 0.66 0.66 0.0 0 0 133.29 127.73
  C 133.40 131.12 133.36 134.59 132.12 137.78
  C 128.95 145.92 121.66 150.20 113.03 150.05
  Q 100.82 149.85 89.42 150.08
  Q 82.82 150.21 78.80 148.73
  C 72.57 146.44 67.61 140.54 66.86 133.74
  Q 66.54 130.77 66.72 127.62
  Z"
/>
<path fill="#ffffff" d="
  M 125.17 156.13
  Q 138.13 150.36 141.29 135.96
  Q 141.41 135.43 141.95 135.43
  L 191.03 135.43
  Q 191.72 135.43 191.72 136.13
  Q 191.66 186.80 191.67 187.24
  C 191.68 191.10 188.83 191.68 185.41 191.68
  Q 99.06 191.68 12.52 191.68
  A 4.21 4.21 0.0 0 1 8.31 187.47
  L 8.31 136.06
  Q 8.31 135.43 8.94 135.43
  L 58.02 135.43
  Q 58.64 135.43 58.76 136.04
  C 59.23 138.39 59.90 140.80 60.98 142.92
  Q 68.93 158.44 87.43 158.37
  Q 102.68 158.31 116.23 158.22
  Q 120.54 158.20 125.17 156.13
  Z"
/>
<path fill="#ffffff" d="
  M 200.00 189.00
  L 200.00 200.00
  L 188.91 200.00
  Q 198.13 198.23 200.00 189.00
  Z"
/>
<path fill="#ffffff" d="
  M 0.00 189.15
  Q 1.91 198.18 10.97 200.00
  L 0.00 200.00
  L 0.00 189.15
  Z"
/>
</svg>
