<?xml version="1.0" encoding="UTF-8" standalone="no"?>
<!DOCTYPE svg PUBLIC "-//W3C//DTD SVG 1.1//EN" "http://www.w3.org/Graphics/SVG/1.1/DTD/svg11.dtd">
<svg xmlns="http://www.w3.org/2000/svg" version="1.1" viewBox="0.00 0.00 512.00 512.00">
<path fill="#000000" d="
  M 269.55 250.08
  Q 266.59 248.41 263.56 247.13
  C 202.83 221.38 135.47 241.64 96.35 294.02
  Q 63.42 338.12 62.96 393.54
  Q 62.94 396.22 61.92 397.93
  C 58.99 402.85 51.79 403.01 48.98 397.85
  Q 47.90 395.88 47.93 393.01
  C 48.71 319.02 92.60 250.16 165.08 227.84
  Q 166.15 227.51 165.12 227.06
  C 101.27 199.21 78.60 119.41 119.60 62.07
  C 135.25 40.18 159.18 24.11 186.03 18.55
  C 229.19 9.62 272.17 26.18 298.19 61.56
  C 312.72 81.33 320.60 107.52 318.90 132.78
  C 316.09 174.62 291.14 210.16 252.95 227.13
  Q 252.06 227.53 252.99 227.81
  Q 270.90 233.15 287.09 243.07
  A 1.76 1.75 53.3 0 0 288.43 243.27
  Q 321.98 234.87 352.44 248.14
  C 393.78 266.13 416.07 310.39 408.12 354.06
  Q 403.24 380.90 384.25 401.98
  A 0.39 0.39 0.0 0 0 384.26 402.51
  L 392.42 411.07
  A 0.50 0.50 0.0 0 0 393.11 411.10
  C 399.21 405.67 407.61 405.61 413.44 411.85
  Q 434.57 434.46 458.36 459.55
  C 463.22 464.68 465.74 469.82 463.49 476.79
  C 461.86 481.87 456.25 486.56 452.40 490.50
  C 446.62 496.40 437.23 496.71 431.51 490.60
  Q 408.35 465.85 386.16 442.33
  C 380.78 436.63 378.76 430.34 382.70 423.24
  A 0.72 0.71 -52.8 0 0 382.59 422.39
  L 373.83 413.21
  Q 373.43 412.79 372.97 413.15
  C 352.62 429.38 326.19 435.91 300.84 432.54
  C 254.70 426.40 219.91 387.49 217.38 341.78
  C 215.26 303.41 235.52 268.23 269.55 250.36
  A 0.16 0.16 0.0 0 0 269.55 250.08
  Z
  M 304.20 125.85
  A 95.09 95.09 0.0 0 0 209.11 30.76
  A 95.09 95.09 0.0 0 0 114.02 125.85
  A 95.09 95.09 0.0 0 0 209.11 220.94
  A 95.09 95.09 0.0 0 0 304.20 125.85
  Z
  M 395.25 336.35
  A 81.60 81.60 0.0 0 0 313.65 254.75
  A 81.60 81.60 0.0 0 0 232.05 336.35
  A 81.60 81.60 0.0 0 0 313.65 417.95
  A 81.60 81.60 0.0 0 0 395.25 336.35
  Z
  M 441.48 479.36
  A 0.70 0.70 0.0 0 0 442.49 479.37
  L 448.97 472.72
  A 0.70 0.70 0.0 0 0 448.98 471.75
  L 403.12 422.98
  A 0.70 0.70 0.0 0 0 402.11 422.98
  L 395.62 429.68
  A 0.70 0.70 0.0 0 0 395.61 430.65
  L 441.48 479.36
  Z"
/>
<path fill="#000000" d="
  M 321.06 337.46
  Q 320.90 341.52 321.08 346.07
  Q 321.24 350.12 320.36 352.37
  C 317.99 358.42 308.64 358.52 306.51 352.01
  Q 305.92 350.19 305.95 348.15
  Q 306.06 339.86 305.98 331.08
  C 305.94 326.42 308.97 323.20 313.50 322.95
  C 323.28 322.39 328.39 312.25 322.35 304.37
  C 318.96 299.94 312.51 298.84 307.77 301.69
  Q 302.18 305.04 302.07 312.00
  C 301.92 322.28 286.96 322.22 287.13 311.57
  Q 287.33 298.72 297.14 290.74
  C 305.63 283.85 317.96 283.10 327.17 288.69
  C 346.87 300.63 343.39 329.39 321.66 336.66
  Q 321.08 336.85 321.06 337.46
  Z"
/>
<circle fill="#000000" cx="313.52" cy="377.83" r="9.41"/>
</svg>
